<?xml version="1.0" standalone="no"?>
<!DOCTYPE svg PUBLIC "-//W3C//DTD SVG 20010904//EN"
 "http://www.w3.org/TR/2001/REC-SVG-20010904/DTD/svg10.dtd">
<svg version="1.0" xmlns="http://www.w3.org/2000/svg"
 width="700.000000pt" height="700.000000pt" viewBox="0 0 700.000000 700.000000"
 preserveAspectRatio="xMidYMid meet">
<metadata>
Created by potrace 1.14, written by Peter Selinger 2001-2017
</metadata>
<g transform="translate(0.000000,700.000000) scale(0.100000,-0.100000)"
fill="#000000" stroke="none">
<path d="M1422 5414 l0 -164 957 0 957 0 -1 163 0 162 -956 2 -957 2 0 -165z"/>
<path d="M3665 3502 l0 -2077 955 0 955 0 2 163 3 162 -794 0 -794 0 0 1750 0
1750 794 0 794 0 -1 164 0 165 -958 0 -957 0 1 -2077z"/>
<path d="M1424 5076 c-2 -6 -2 -830 -1 -1831 l2 -1820 953 -2 c621 -2 952 1
953 7 1 6 2 80 3 165 l2 155 -793 0 -793 0 0 1668 0 1668 -161 0 c-105 0 -162
-3 -165 -10z"/>
<path d="M5255 5082 c-3 -3 -5 -717 -5 -1587 l0 -1582 165 0 164 1 -2 1585 -2
1586 -158 1 c-86 0 -159 -2 -162 -4z"/>
</g>
</svg>
